<svg width="500" height="500" viewBox="0 0 500 500" fill="none" xmlns="http://www.w3.org/2000/svg">
  <!-- Top Left Block (Blue) -->
  <path d="M160 142C160 131.507 168.507 123 179 123H218C228.493 123 237 131.507 237 142V219C237 229.493 228.493 238 218 238H179C168.507 238 160 229.493 160 219V142Z" fill="#3B7FB5"/>
  <circle cx="192" cy="173" r="6" fill="white"/>
  <line x1="192" y1="173" x2="218" y2="173" stroke="white" stroke-width="2"/>
  <line x1="192" y1="173" x2="192" y2="219" stroke="white" stroke-width="2"/>
  <circle cx="192" cy="219" r="4" fill="white"/>
  
  <!-- Top Right Block (Dark Blue) -->
  <path d="M263 142C263 131.507 271.507 123 282 123H321C331.493 123 340 142V219C340 229.493 331.493 238 321 238H282C271.507 238 263 229.493 263 219V142Z" fill="#3D4E6B"/>
  <circle cx="302" cy="173" r="6" fill="white"/>
  <line x1="280" y1="173" x2="302" y2="173" stroke="white" stroke-width="2"/>
  <line x1="302" y1="173" x2="302" y2="219" stroke="white" stroke-width="2"/>
  <circle cx="302" cy="219" r="4" fill="white"/>
  
  <!-- Bottom Left Block (Cyan) -->
  <path d="M160 262C160 251.507 168.507 243 179 243H218C228.493 243 237 251.507 237 262V299C237 309.493 228.493 318 218 318H179C168.507 318 160 309.493 160 299V262Z" fill="#14B8C8"/>
  <circle cx="192" cy="280" r="6" fill="white"/>
  <line x1="192" y1="280" x2="218" y2="280" stroke="white" stroke-width="2"/>
  <line x1="192" y1="280" x2="192" y2="299" stroke="white" stroke-width="2"/>
  <circle cx="192" cy="299" r="4" fill="white"/>
  
  <!-- Bottom Right Block (White) -->
  <path d="M263 262C263 251.507 271.507 243 282 243H321C331.493 243 340 251.507 340 262V299C340 309.493 331.493 318 321 318H282C271.507 318 263 309.493 263 299V262Z" fill="white" stroke="#E5E7EB" stroke-width="1"/>
  <circle cx="302" cy="280" r="6" fill="#3D4E6B"/>
  <line x1="280" y1="280" x2="302" y2="280" stroke="#3D4E6B" stroke-width="2"/>
  <line x1="302" y1="280" x2="302" y2="299" stroke="#3D4E6B" stroke-width="2"/>
  <circle cx="302" cy="299" r="4" fill="#3D4E6B"/>
  
  <!-- Center Diamond -->
  <rect x="230" y="200" width="40" height="40" rx="8" fill="white" stroke="#E5E7EB" stroke-width="1" transform="rotate(45 250 220)"/>
  <circle cx="250" cy="220" r="15" fill="white" stroke="#3D4E6B" stroke-width="2"/>
  <path d="M250 210 L255 220 L250 230 L245 220 Z" fill="#3D4E6B"/>
  <circle cx="250" cy="220" r="3" fill="#14B8C8"/>
  
  <!-- Text -->
  <text x="250" y="370" font-family="Arial, sans-serif" font-size="36" font-weight="bold" fill="#3D4E6B" text-anchor="middle">
    PAZAR<tspan fill="#14B8C8">GLOBAL</tspan>
  </text>
</svg>